<svg width="527" height="465" viewBox="0 0 527 465" fill="none" xmlns="http://www.w3.org/2000/svg">
<g clip-path="url(#clip0_404_17)">
<path d="M58.5262 311.369C61.1864 316.246 64.2162 322.306 67.6155 329.547C71.1625 336.641 74.7834 344.401 78.4783 352.825C82.3209 361.101 86.0896 369.599 89.7845 378.319C93.4793 387.039 96.9524 395.242 100.204 402.927C103.455 395.242 106.928 387.039 110.623 378.319C114.318 369.599 118.013 361.101 121.708 352.825C125.55 344.401 129.171 336.641 132.571 329.547C136.118 322.306 139.221 316.246 141.882 311.369H173.362C174.84 321.567 176.17 333.021 177.352 345.731C178.682 358.293 179.791 371.447 180.677 385.192C181.712 398.789 182.599 412.459 183.338 426.204C184.224 439.949 184.963 452.881 185.555 465H151.858C151.414 450.073 150.823 433.816 150.084 416.228C149.345 398.641 148.237 380.906 146.759 363.023C144.099 369.23 141.143 376.102 137.891 383.64C134.64 391.177 131.388 398.715 128.137 406.252C125.033 413.79 122.003 421.031 119.048 427.978C116.092 434.776 113.579 440.614 111.51 445.491H87.3459C85.2768 440.614 82.7643 434.776 79.8084 427.978C76.8525 421.031 73.7489 413.79 70.4974 406.252C67.3938 398.715 64.2162 391.177 60.9648 383.64C57.7133 376.102 54.7574 369.23 52.0972 363.023C50.6192 380.906 49.5108 398.641 48.7718 416.228C48.0328 433.816 47.4417 450.073 46.9983 465H13.3014C13.8926 452.881 14.5576 439.949 15.2966 426.204C16.1834 412.459 17.0701 398.789 17.9569 385.192C18.9914 371.447 20.0999 358.293 21.2822 345.731C22.6124 333.021 24.0164 321.567 25.4944 311.369H58.5262ZM259.036 441.944C262.288 441.944 265.391 441.87 268.347 441.723C271.303 441.575 273.668 441.353 275.441 441.057V416.006C274.111 415.711 272.116 415.415 269.456 415.12C266.795 414.824 264.357 414.676 262.14 414.676C259.036 414.676 256.08 414.898 253.272 415.341C250.612 415.637 248.247 416.302 246.178 417.337C244.109 418.371 242.483 419.775 241.301 421.549C240.119 423.322 239.527 425.539 239.527 428.199C239.527 433.372 241.227 436.993 244.626 439.062C248.173 440.984 252.977 441.944 259.036 441.944ZM256.376 345.287C266.13 345.287 274.259 346.396 280.762 348.613C287.265 350.83 292.437 354.007 296.28 358.145C300.27 362.284 303.079 367.309 304.704 373.22C306.33 379.132 307.143 385.709 307.143 392.951V461.675C302.414 462.709 295.837 463.892 287.412 465.222C278.988 466.7 268.791 467.439 256.819 467.439C249.282 467.439 242.409 466.774 236.202 465.443C230.143 464.113 224.896 461.97 220.462 459.014C216.028 455.911 212.629 451.92 210.264 447.043C207.9 442.166 206.717 436.18 206.717 429.086C206.717 422.288 208.047 416.524 210.708 411.794C213.516 407.065 217.211 403.296 221.792 400.488C226.374 397.68 231.62 395.685 237.532 394.503C243.444 393.172 249.577 392.507 255.932 392.507C260.218 392.507 263.987 392.729 267.239 393.172C270.638 393.468 273.372 393.911 275.441 394.503V391.399C275.441 385.783 273.742 381.275 270.342 377.876C266.943 374.477 261.031 372.777 252.607 372.777C246.991 372.777 241.449 373.22 235.98 374.107C230.512 374.846 225.783 375.954 221.792 377.432L217.58 350.83C219.501 350.238 221.866 349.647 224.674 349.056C227.63 348.317 230.808 347.726 234.207 347.283C237.606 346.691 241.153 346.248 244.848 345.952C248.691 345.509 252.533 345.287 256.376 345.287ZM383.567 467.217C373.96 467.069 366.127 466.035 360.068 464.113C354.156 462.192 349.427 459.532 345.88 456.132C342.48 452.585 340.116 448.373 338.786 443.496C337.603 438.471 337.012 432.855 337.012 426.648V298.289L370.044 292.969V419.997C370.044 422.953 370.266 425.613 370.709 427.978C371.152 430.342 371.965 432.338 373.148 433.963C374.478 435.589 376.325 436.919 378.69 437.954C381.055 438.988 384.232 439.653 388.223 439.949L383.567 467.217ZM517.78 335.311C513.05 340.189 507.434 346.544 500.931 354.377C494.428 362.062 487.704 370.486 480.757 379.649C473.811 388.813 466.939 398.271 460.14 408.026C453.342 417.78 447.282 427.091 441.962 435.959H520.218V465H399.397V444.383C403.535 436.845 408.56 428.495 414.472 419.332C420.532 410.021 426.813 400.71 433.316 391.399C439.819 381.94 446.395 372.851 453.046 364.131C459.845 355.263 466.126 347.356 471.89 340.41H402.944V311.369H517.78V335.311Z" fill="white"/>
<path d="M57.1927 190.871C68.2297 230.252 104.07 257.566 145.108 257.566C192.566 257.566 232.209 220.882 236.105 173.735C242.635 168.361 252.449 162.465 264.473 162.465C264.481 162.465 264.481 162.465 264.49 162.465C275.269 162.694 285.095 168.621 291.797 173.959C295.8 220.974 335.434 257.565 382.781 257.565C423.741 257.565 459.535 230.335 470.639 191.053C480.341 187.74 484.829 175.076 482.682 156.429C482.361 153.664 481.656 151.4 480.734 149.5H481.139L404.645 13.0787C402.208 8.7387 396.41 4.98369 391.453 4.54469L340.848 0.0386965C335.366 -0.448303 330.897 3.7217 330.897 9.1457V18.3687C330.897 23.8567 335.426 27.8517 340.868 27.2647L394.059 21.1017L429.829 87.8747C415.979 79.5227 399.846 74.7507 382.782 74.7507C339.161 74.7507 301.655 105.948 293.223 148.223C283.878 143.114 274.393 140.425 264.953 140.224L263.941 140.216C253.995 140.216 244.158 142.853 234.629 148.067C226.127 105.889 188.642 74.7587 145.109 74.7587C128.131 74.7587 112.086 79.4837 98.2737 87.7607L133.976 21.1167L187.166 27.2807C192.566 27.8737 197.143 23.8727 197.143 18.3847V9.1617C197.143 3.7377 192.689 -0.486304 187.181 0.0526964L136.576 4.5607C131.617 5.0097 125.824 8.75469 123.383 13.1007L46.8947 149.501H47.4837C46.5557 151.4 45.8507 153.657 45.5217 156.43C43.4167 174.733 47.7557 187.328 57.1927 190.871ZM382.689 98.1157C420.868 98.1157 451.933 129.179 451.933 167.36C451.933 205.543 420.868 236.6 382.689 236.6C344.509 236.6 313.444 205.542 313.444 167.36C313.444 129.179 344.509 98.1157 382.689 98.1157ZM146.389 98.1157C184.574 98.1157 215.639 129.179 215.639 167.36C215.639 205.543 184.573 236.6 146.389 236.6C108.214 236.6 77.1487 205.542 77.1487 167.36C77.1477 129.179 108.214 98.1157 146.389 98.1157Z" fill="white"/>
</g>
<defs>
<clipPath id="clip0_404_17">
<rect width="527" height="465" fill="white"/>
</clipPath>
</defs>
</svg>
